<?xml version="1.0" standalone="no"?>
<!DOCTYPE svg PUBLIC "-//W3C//DTD SVG 20010904//EN"
 "http://www.w3.org/TR/2001/REC-SVG-20010904/DTD/svg10.dtd">
<svg version="1.0" xmlns="http://www.w3.org/2000/svg"
 width="1587.000000pt" height="1323.000000pt" viewBox="0 0 1587.000000 1323.000000"
 preserveAspectRatio="xMidYMid meet">

<g transform="translate(0.000000,1323.000000) scale(0.100000,-0.100000)"
fill="#000000" stroke="none">
<path d="M7069 13193 c-8 -1 -158 -4 -334 -7 -176 -2 -376 -9 -445 -15 -69 -5
-163 -12 -210 -15 -47 -2 -92 -7 -100 -10 -8 -3 -46 -7 -85 -10 -38 -2 -78 -7
-87 -11 -10 -4 -61 -8 -113 -9 -52 0 -95 -5 -95 -10 0 -4 -9 -6 -20 -3 -11 3
-20 2 -20 -2 0 -8 -178 -33 -190 -26 -5 3 -10 -1 -12 -7 -5 -13 -18 -15 -115
-19 -29 -1 -51 -5 -48 -9 4 -6 -61 -22 -215 -54 -14 -3 -59 -15 -100 -26 -41
-12 -87 -21 -102 -22 -15 -1 -25 -4 -23 -8 3 -4 -14 -10 -38 -13 -47 -6 -69
-11 -112 -26 -33 -12 -207 -65 -215 -66 -3 -1 -32 -10 -65 -20 -33 -11 -64
-19 -70 -20 -5 0 -14 -3 -20 -6 -5 -4 -35 -14 -65 -24 -30 -10 -59 -21 -64
-25 -5 -5 -15 -6 -22 -3 -8 3 -20 0 -27 -6 -8 -6 -22 -12 -33 -14 -10 -2 -32
-9 -47 -15 -16 -7 -34 -12 -42 -12 -8 0 -17 -5 -20 -10 -4 -6 -12 -10 -18 -9
-7 1 -19 0 -27 -4 -36 -13 -60 -15 -54 -4 3 7 -3 3 -13 -9 -11 -12 -29 -20
-43 -19 -14 1 -28 -2 -31 -7 -4 -6 -15 -8 -25 -6 -60 11 374 173 731 273 72
20 153 42 180 50 44 13 128 32 340 80 68 15 290 57 445 84 58 11 93 19 78 20
-36 1 -402 -62 -605 -105 -770 -162 -1493 -428 -2131 -785 -588 -329 -1117
-784 -1454 -1249 -98 -135 -206 -306 -252 -398 -23 -45 -41 -70 -48 -66 -6 4
-8 3 -5 -3 4 -6 -20 -73 -53 -148 -138 -315 -215 -610 -259 -990 -14 -116 -19
-143 -20 -99 -4 274 100 720 243 1043 25 57 45 106 43 108 -2 2 -38 -74 -80
-169 -192 -439 -274 -793 -307 -1333 -6 -104 -16 -221 -21 -260 -5 -38 -10
-78 -10 -87 0 -10 -5 -18 -10 -18 -5 0 -14 -12 -19 -26 -9 -21 -13 -24 -25
-14 -11 9 -15 41 -17 128 l-3 117 -77 -390 c-43 -214 -92 -466 -108 -560 -17
-93 -32 -177 -35 -185 -2 -8 -14 -69 -25 -135 -46 -274 -13 -654 79 -928 53
-155 153 -355 215 -429 17 -20 38 -46 47 -59 18 -26 39 -18 39 15 0 13 -18 86
-39 162 -67 240 -117 524 -91 524 4 0 20 -16 36 -35 16 -19 37 -35 46 -35 16
0 17 9 13 78 -2 42 -13 129 -24 192 -11 63 -23 170 -27 238 -6 106 -4 128 11
162 10 22 25 40 33 40 8 0 51 -22 94 -50 43 -27 83 -50 87 -50 5 0 11 -3 13
-7 9 -20 134 -113 152 -113 21 0 -20 321 -53 411 -48 134 -76 249 -60 249 11
0 12 -2 126 -239 118 -246 250 -483 367 -656 74 -112 266 -373 297 -406 8 -8
34 -39 59 -69 187 -229 557 -593 840 -826 216 -179 556 -432 784 -584 118 -78
530 -330 541 -330 2 0 51 -27 108 -59 205 -117 687 -350 943 -456 457 -190
956 -363 1339 -465 17 -4 84 -23 150 -43 66 -19 147 -42 180 -50 33 -9 96 -25
140 -37 81 -22 341 -89 625 -161 162 -42 424 -100 450 -101 8 0 44 -6 80 -13
36 -7 95 -16 133 -19 37 -4 73 -9 80 -11 23 -8 393 -60 502 -70 17 -1 120 -12
230 -23 110 -12 225 -23 255 -26 101 -10 334 -25 453 -30 65 -2 122 -8 125
-12 9 -8 -536 8 -673 20 -33 3 -121 11 -195 16 -74 6 -187 17 -250 25 -63 8
-137 17 -165 20 -185 20 -240 27 -358 45 -276 43 -790 138 -992 185 -33 7
-152 35 -265 60 -458 105 -938 237 -1280 353 -689 235 -1091 387 -1411 535
-183 85 -230 105 -284 124 -67 24 -219 71 -250 78 -44 9 -214 66 -274 90 -76
32 -122 29 -264 -15 -38 -12 -77 -22 -87 -23 -10 -1 -16 -5 -14 -9 3 -4 -2 -8
-11 -8 -9 0 -30 -7 -46 -16 -23 -11 -30 -21 -26 -35 3 -10 0 -22 -5 -26 -7 -4
-8 -1 -3 7 6 9 4 11 -4 6 -7 -5 -10 -14 -7 -22 3 -8 -1 -14 -9 -14 -13 0 -19
-12 -16 -32 0 -4 -9 -18 -22 -32 -36 -40 -67 -83 -67 -95 0 -6 -4 -11 -10 -11
-5 0 -10 -7 -10 -15 0 -8 -4 -15 -9 -15 -5 0 -14 -14 -20 -30 -5 -16 -13 -30
-16 -30 -3 0 -3 5 1 12 4 7 3 8 -4 4 -6 -4 -9 -13 -5 -21 3 -8 -1 -15 -8 -15
-7 0 -9 -3 -6 -7 4 -3 -3 -17 -15 -31 -13 -13 -22 -26 -20 -28 6 -10 -12 -60
-26 -71 -14 -12 -21 -37 -23 -85 0 -10 -4 -18 -8 -18 -10 0 -11 -8 -25 -165
-2 -22 -4 -40 -5 -40 -1 0 -4 -13 -6 -30 -2 -16 -9 -31 -15 -33 -5 -2 -10 -10
-10 -17 0 -8 -5 -17 -12 -21 -7 -5 -8 -3 -3 6 5 9 4 11 -3 6 -7 -4 -12 -13
-12 -21 0 -7 -7 -16 -16 -19 -9 -3 -12 -11 -8 -18 4 -7 4 -10 0 -6 -10 9 -67
-12 -61 -22 3 -5 -6 -7 -19 -6 -14 2 -25 0 -24 -3 2 -24 -5 -39 -24 -49 -13
-6 -17 -11 -11 -11 9 -1 7 -7 -5 -19 -23 -23 -91 -63 -105 -61 -19 2 -57 -13
-57 -22 0 -5 -6 -9 -14 -9 -8 0 -17 -14 -21 -30 -4 -17 -12 -30 -18 -31 -7 0
-23 -2 -37 -5 -99 -15 -130 -4 -250 92 -84 66 -290 284 -420 444 -25 30 -55
66 -67 80 -50 58 -198 257 -271 367 -163 241 -320 542 -445 848 -156 381 -272
844 -306 1217 -20 216 -11 687 16 798 3 14 3 22 -1 19 -7 -7 -50 -233 -66
-354 -6 -49 -18 -119 -25 -155 -8 -36 -24 -150 -37 -255 -19 -161 -23 -237
-23 -500 0 -337 9 -447 56 -690 43 -225 112 -455 212 -710 20 -49 47 -119 60
-155 121 -318 387 -756 700 -1150 535 -674 1337 -1339 2220 -1842 1466 -834
3159 -1330 4957 -1450 258 -17 1112 -17 1365 0 1124 77 2103 304 2976 690 497
220 969 511 1354 833 111 93 325 303 325 319 0 5 7 10 15 10 8 0 15 3 15 8 0
4 24 32 53 62 28 30 65 71 80 90 16 19 46 53 67 76 56 60 217 276 279 374 61
97 78 125 133 228 21 41 43 81 48 90 34 61 143 316 189 438 37 102 125 413
118 420 -3 3 -13 -19 -22 -48 -59 -181 -201 -481 -327 -690 -261 -429 -662
-862 -1123 -1209 -504 -380 -1209 -737 -1900 -961 -734 -237 -1478 -373 -2355
-429 -262 -16 -1000 -14 -1273 5 -1058 73 -1971 250 -2932 571 -1072 357
-2043 859 -2865 1479 -1064 804 -1833 1800 -2174 2816 -136 405 -195 739 -201
1140 -3 195 -2 210 6 110 35 -448 79 -681 196 -1035 185 -563 433 -1025 818
-1519 687 -884 1649 -1649 2825 -2245 519 -263 1132 -507 1710 -681 91 -28
179 -54 195 -60 44 -14 397 -105 495 -129 497 -117 1102 -221 1525 -261 61 -6
124 -13 140 -15 67 -11 477 -36 730 -45 431 -16 1029 11 1485 65 590 71 1186
205 1731 391 470 160 845 335 1284 599 630 379 1212 885 1576 1370 248 331
442 724 532 1080 41 159 98 436 93 449 -2 6 -5 3 -5 -7 -2 -29 -90 -266 -133
-357 -43 -90 -129 -230 -153 -250 -12 -10 -15 -10 -15 2 0 15 56 146 123 288
103 218 189 452 246 670 30 115 154 723 165 810 5 45 5 45 -6 10 -109 -347
-164 -478 -321 -760 -34 -62 -129 -194 -171 -238 -43 -46 -166 -134 -202 -146
-36 -11 -52 41 -44 141 6 76 5 121 -3 243 -3 53 -1 57 135 228 386 483 582
838 718 1297 53 178 92 383 85 449 -4 39 -3 46 5 31 8 -15 9 -3 5 45 -2 36 -1
57 3 48 4 -9 8 42 8 115 1 139 0 137 -17 -38 -44 -458 -235 -942 -521 -1325
-84 -112 -243 -280 -265 -280 -15 0 37 85 107 175 25 33 69 94 96 135 28 41
88 131 134 200 231 345 365 694 426 1110 22 143 25 575 6 725 -62 488 -222
964 -475 1418 -148 263 -337 544 -359 531 -7 -4 -8 -3 -4 5 10 15 -13 43 -28
34 -6 -3 -8 -3 -4 1 3 4 -2 17 -12 29 -10 12 -67 85 -128 162 -153 196 -304
366 -499 560 -158 158 -407 384 -518 469 -61 47 -46 32 180 -169 772 -688
1290 -1481 1441 -2205 42 -203 38 -452 -10 -522 -36 -53 -61 -61 -171 -48 -89
9 -98 9 -136 -11 -28 -14 -45 -31 -55 -57 -8 -20 -19 -46 -24 -57 -4 -11 -11
-29 -15 -40 -8 -22 -54 -218 -86 -365 -72 -333 -208 -708 -363 -995 -97 -181
-277 -449 -365 -545 -40 -43 -39 -40 17 45 144 221 254 430 341 655 226 582
269 1257 120 1895 -110 470 -318 933 -675 1502 -36 57 -67 110 -71 118 -3 9
-28 53 -55 98 -54 90 -78 160 -83 245 -5 68 -22 147 -42 185 -27 53 -146 203
-232 290 -97 100 -296 268 -481 407 -599 450 -1513 909 -2441 1226 -284 96
-655 205 -909 268 -36 8 -112 27 -170 41 -589 144 -1173 228 -1865 270 -226
13 -530 23 -566 18z m691 -84 c688 -39 1350 -143 2055 -324 99 -25 225 -59
280 -76 55 -17 132 -39 170 -51 105 -31 422 -139 575 -196 406 -152 816 -341
1160 -534 154 -87 364 -238 393 -281 20 -30 28 -113 14 -144 -19 -42 20 -100
158 -239 72 -71 150 -147 175 -168 185 -156 602 -584 801 -822 307 -367 566
-778 729 -1154 18 -41 38 -88 46 -105 79 -179 183 -518 238 -775 107 -506 93
-1024 -40 -1470 -26 -88 -134 -374 -139 -368 -1 2 2 55 7 118 12 142 5 400
-18 674 -15 169 -16 217 -6 269 7 34 13 67 14 73 3 26 41 -2 64 -47 13 -27 22
-49 19 -49 -4 0 -3 -6 2 -12 4 -7 9 -23 11 -36 1 -12 7 -32 13 -45 12 -27 4
204 -12 343 -15 133 -68 457 -80 486 -5 14 -11 44 -13 67 -3 23 -14 69 -25
101 -12 33 -21 65 -21 73 0 7 -4 21 -10 31 -5 9 -26 60 -46 112 -54 143 -184
396 -291 568 -260 418 -555 773 -973 1168 -371 351 -847 690 -1395 994 -334
186 -899 447 -1310 606 -130 50 -142 56 -127 61 8 3 19 0 25 -6 6 -6 22 -11
35 -11 13 0 125 -34 248 -75 351 -118 633 -234 930 -383 580 -291 1034 -588
1494 -981 172 -147 525 -499 660 -660 674 -799 1010 -1598 1010 -2405 0 -99 3
-177 6 -174 9 10 5 396 -5 503 -38 389 -160 808 -353 1215 -55 118 -170 329
-229 423 -21 34 -46 76 -55 92 -33 59 -198 302 -272 400 -551 728 -1220 1289
-2142 1795 -92 50 -448 228 -510 254 -25 11 -73 32 -107 48 -200 90 -635 254
-843 318 -58 17 -130 40 -160 51 -30 12 -113 36 -185 54 -71 19 -157 41 -190
50 -405 107 -950 192 -1440 225 -997 67 -1944 -22 -2780 -261 -975 -280 -1836
-768 -2470 -1404 -191 -191 -298 -315 -438 -510 -121 -169 -120 -167 -100
-120 60 138 316 499 507 714 127 144 366 372 517 493 379 303 844 569 1394
796 232 96 381 154 465 182 47 15 110 39 140 53 31 14 80 35 110 47 126 48
180 90 180 137 0 15 7 46 16 69 12 32 26 48 62 67 59 32 92 41 282 78 428 83
1145 114 1780 78z m2877 -1884 c0 -8 -4 -12 -9 -9 -5 3 -6 10 -3 15 9 13 12
11 12 -6z m18 -135 c3 -5 1 -10 -4 -10 -6 0 -11 5 -11 10 0 6 2 10 4 10 3 0 8
-4 11 -10z m49 -129 c-8 -8 -44 -8 -44 1 0 4 11 7 25 6 13 -1 22 -4 19 -7z
m93 -17 c-3 -3 -12 -4 -19 -1 -8 3 -5 6 6 6 11 1 17 -2 13 -5z m-227 -16 c0
-4 -4 -8 -9 -8 -6 0 -12 4 -15 8 -3 5 1 9 9 9 8 0 15 -4 15 -9z m135 2 c3 -6
-1 -7 -9 -4 -18 7 -21 14 -7 14 6 0 13 -4 16 -10z m205 -20 c0 -5 -7 -7 -15
-4 -8 4 -15 8 -15 10 0 2 7 4 15 4 8 0 15 -4 15 -10z m-9760 -237 c-95 -196
-129 -304 -201 -651 -41 -201 -49 -378 -23 -509 8 -43 17 -130 19 -193 6 -146
9 -172 50 -360 42 -194 46 -239 23 -253 -26 -17 -51 13 -92 109 -40 92 -78
247 -98 394 -15 118 -14 401 2 535 41 350 154 679 337 988 19 31 36 57 37 57
1 0 -23 -53 -54 -117z m5980 -968 c1050 -64 2117 -290 3010 -639 897 -351
1763 -847 2395 -1372 149 -124 531 -501 656 -649 320 -375 563 -796 705 -1220
42 -124 43 -130 26 -147 -17 -17 -19 -15 -56 74 -115 275 -317 623 -520 898
-274 369 -686 774 -1117 1098 -1152 864 -2730 1470 -4379 1682 -798 102 -1566
107 -2447 15 -142 -15 -230 -19 -222 -10 3 2 128 29 279 59 151 31 289 59 305
64 47 13 37 36 -20 45 -57 9 -406 0 -505 -13 -99 -13 -236 -23 -230 -17 8 9
196 45 347 67 197 28 382 47 583 60 96 5 193 12 215 13 128 11 761 5 975 -8z
m30 -520 c1086 -79 2128 -318 3095 -708 1121 -452 2064 -1079 2739 -1820 43
-47 84 -85 90 -84 6 1 10 -5 8 -15 -1 -9 9 -25 23 -36 14 -11 25 -24 25 -28 0
-5 19 -26 42 -48 24 -21 36 -35 28 -30 -9 5 -4 -2 10 -15 14 -13 18 -20 10
-15 -13 7 -13 6 -1 -9 8 -10 16 -15 19 -13 3 3 29 -27 58 -67 29 -40 66 -90
82 -112 17 -22 47 -69 69 -104 21 -34 50 -82 65 -105 56 -87 222 -412 233
-459 6 -21 -8 -37 -99 -122 -245 -227 -623 -490 -931 -647 -392 -200 -637
-298 -1015 -407 -418 -120 -1003 -234 -1367 -267 -40 -4 -73 -10 -73 -13 0 -4
-15 -5 -33 -3 -18 2 -75 -2 -127 -8 -52 -7 -105 -13 -117 -14 -13 0 -23 -4
-23 -7 0 -3 -6 -6 -12 -6 -7 -1 -58 -3 -113 -6 -55 -4 -174 -7 -265 -7 -90 -1
-173 -6 -182 -11 -12 -7 -18 -6 -18 1 0 7 -6 8 -19 0 -11 -5 -26 -8 -33 -5 -7
2 -134 7 -283 10 -148 2 -299 7 -335 10 -518 44 -801 80 -1220 155 -420 75
-728 143 -1020 225 -358 101 -893 289 -1120 392 -30 14 -86 38 -125 53 -210
84 -841 397 -1230 610 -33 18 -124 66 -203 107 -79 40 -176 93 -215 117 -40
24 -112 62 -160 86 -96 46 -134 52 -212 30 -67 -19 -161 0 -266 54 -118 60
-218 116 -260 145 -224 158 -294 211 -414 312 -657 552 -1108 1148 -1311 1733
-71 206 -103 339 -74 310 6 -6 34 -55 64 -110 222 -415 433 -700 582 -784 29
-16 55 -34 59 -40 3 -5 31 -10 61 -10 51 0 58 3 121 55 61 50 71 55 115 55 46
0 53 -4 131 -73 45 -40 123 -121 172 -179 330 -389 576 -653 816 -874 193
-178 499 -436 499 -420 0 2 -65 60 -145 126 -219 184 -559 520 -769 760 -71
82 -260 323 -352 450 -185 253 -454 676 -454 713 0 18 40 -16 79 -68 23 -30
46 -55 51 -55 6 0 7 20 4 48 l-5 47 21 -25 c12 -14 36 -52 52 -85 95 -188 262
-473 391 -662 108 -160 147 -199 53 -54 -90 139 -193 324 -261 468 l-56 118
83 78 c288 272 635 506 1058 714 775 381 1761 613 2820 663 239 12 841 3 1090
-15z m-5283 -472 c-2 -16 -4 -5 -4 22 0 28 2 40 4 28 2 -13 2 -35 0 -50z m10
-105 c-3 -7 -5 -2 -5 12 0 14 2 19 5 13 2 -7 2 -19 0 -25z m10 -80 c-2 -13 -4
-5 -4 17 -1 22 1 32 4 23 2 -10 2 -28 0 -40z m783 -82 c-8 -7 -73 -60 -145
-116 -71 -57 -208 -182 -304 -277 -96 -95 -176 -173 -177 -173 -1 0 -4 10 -7
22 -8 29 50 96 196 227 120 107 245 204 362 283 67 45 105 63 75 34z m-1885
-446 c152 -425 406 -850 711 -1190 433 -483 1058 -976 1719 -1355 261 -150
586 -306 740 -356 33 -11 80 -26 105 -34 52 -17 245 -21 255 -5 4 6 10 8 15 5
5 -3 28 -8 52 -11 53 -8 114 -27 197 -65 35 -16 67 -29 71 -29 5 0 46 -17 92
-39 45 -21 104 -47 129 -59 25 -11 93 -43 150 -71 58 -28 110 -51 116 -51 6 0
16 -6 22 -14 6 -7 60 -35 119 -62 59 -27 121 -58 137 -69 17 -11 94 -51 170
-90 77 -38 142 -72 145 -75 3 -3 46 -23 95 -45 50 -21 128 -59 175 -83 82 -42
112 -55 210 -88 47 -16 80 -57 57 -71 -16 -10 -83 -4 -129 13 -21 7 -76 21
-121 30 -175 34 -207 42 -352 84 -624 180 -1234 421 -1841 726 -143 72 -278
142 -300 156 -21 14 -75 44 -119 68 -204 110 -620 373 -835 528 -260 187 -519
396 -713 575 -227 211 -544 588 -671 797 -15 25 -45 74 -67 110 -156 250 -318
616 -383 864 -23 91 -4 54 49 -94z m12987 -358 c63 -79 78 -100 78 -106 0 -3
14 -25 30 -48 17 -22 30 -47 30 -55 0 -7 4 -13 8 -13 5 0 15 -12 23 -27 7 -16
30 -57 51 -92 21 -34 38 -66 38 -69 0 -3 6 -13 13 -21 7 -9 26 -45 41 -81 16
-36 36 -81 46 -101 10 -20 36 -94 58 -165 65 -211 92 -364 95 -536 2 -98 1
-105 -28 -153 l-30 -50 -7 60 c-15 113 -30 210 -38 245 -5 19 -16 67 -26 105
-60 250 -130 445 -248 690 -35 72 -71 148 -81 170 -10 22 -29 56 -42 77 -14
20 -25 42 -27 50 -1 7 -4 18 -8 23 -32 54 -48 90 -44 102 3 8 2 12 -3 9 -11
-7 -32 40 -25 59 5 12 10 12 33 -6 14 -11 43 -42 63 -67z m1985 -224 c-10
-376 -82 -671 -239 -991 -174 -355 -460 -702 -695 -843 -47 -28 -67 -34 -114
-34 -60 0 -64 3 -97 62 -25 43 -21 103 7 132 28 27 105 51 267 82 29 5 170
111 215 161 62 69 127 190 159 298 39 130 83 210 170 310 44 50 96 154 152
300 17 44 39 92 49 106 55 79 97 270 114 527 4 56 10 102 13 102 3 0 2 -96 -1
-212z m-2099 -614 c6 4 18 -7 27 -24 8 -16 14 -30 12 -30 -2 0 16 -21 40 -46
23 -25 43 -51 43 -56 0 -5 15 -28 34 -50 19 -22 42 -55 50 -73 9 -18 29 -44
46 -58 16 -14 26 -28 23 -31 -4 -3 0 -6 8 -6 43 -1 125 -205 163 -408 l13 -73
-29 -43 c-50 -77 -53 -76 -78 16 -57 215 -165 475 -287 689 -24 42 -43 85 -43
96 0 10 -8 28 -19 39 -25 28 -42 60 -34 68 4 3 10 1 14 -5 4 -6 12 -9 17 -5z
m2149 -56 c-3 -7 -5 -2 -5 12 0 14 2 19 5 13 2 -7 2 -19 0 -25z m-10 -40 c-3
-8 -6 -5 -6 6 -1 11 2 17 5 13 3 -3 4 -12 1 -19z m-15730 -65 c-2 -16 -4 -5
-4 22 0 28 2 40 4 28 2 -13 2 -35 0 -50z m15720 5 c-3 -7 -5 -2 -5 12 0 14 2
19 5 13 2 -7 2 -19 0 -25z m-10 -40 c-3 -8 -6 -5 -6 6 -1 11 2 17 5 13 3 -3 4
-12 1 -19z m-13 -62 c-3 -15 -8 -25 -11 -23 -2 3 -1 17 3 31 3 15 8 25 11 23
2 -3 1 -17 -3 -31z m-2603 -73 c13 -16 12 -17 -3 -4 -10 7 -18 15 -18 17 0 8
8 3 21 -13z m2566 -55 c-3 -8 -6 -5 -6 6 -1 11 2 17 5 13 3 -3 4 -12 1 -19z
m-687 -1222 c0 -9 -85 -104 -184 -205 -275 -283 -625 -536 -981 -710 -149 -73
-274 -130 -342 -155 -37 -13 -86 -32 -108 -41 -54 -24 -95 -35 -95 -27 0 8 64
38 165 77 98 38 340 155 470 227 201 112 472 296 661 449 91 74 341 306 379
353 29 35 35 40 35 32z m-3094 -843 c-10 -10 -19 5 -10 18 6 11 8 11 12 0 2
-7 1 -15 -2 -18z m-61 -14 c-8 -12 -42 -12 -50 0 -3 5 5 11 17 13 28 5 40 0
33 -13z m-221 -54 c-4 -8 -10 -12 -15 -9 -11 6 -2 24 11 24 5 0 7 -7 4 -15z
m-104 -23 c0 -5 -7 -9 -15 -9 -8 0 -15 4 -15 9 0 4 7 8 15 8 8 0 15 -4 15 -8z
m-1535 -432 c103 -3 274 -32 284 -49 14 -22 181 -90 237 -96 33 -4 75 -11 94
-16 52 -13 508 -13 710 0 201 13 312 24 530 51 85 11 173 22 195 24 22 2 58 7
80 12 63 11 37 -3 -45 -25 -212 -56 -783 -139 -1175 -171 -527 -41 -1201 -34
-1735 19 -52 6 -133 13 -180 16 -47 4 -128 15 -180 25 -52 10 -124 21 -160 25
-36 3 -103 15 -150 25 -47 11 -124 24 -171 31 -102 13 -123 23 -94 44 11 9 25
13 32 11 7 -3 15 -1 18 4 3 5 15 6 28 4 26 -7 187 -5 198 2 4 2 68 6 141 9 73
2 219 11 323 19 290 24 700 43 850 39 39 0 115 -2 170 -3z m4748 -56 c9 -10
-19 -61 -81 -144 -64 -86 -371 -395 -482 -486 -106 -85 -299 -221 -405 -284
-49 -30 -92 -56 -95 -59 -14 -16 -108 -60 -115 -53 -5 4 -5 2 -1 -5 6 -10 -40
-44 -59 -43 -19 1 -23 -2 -28 -19 -2 -10 -17 -21 -32 -25 -15 -4 -43 -18 -62
-31 -20 -13 -42 -21 -49 -18 -15 5 -36 -35 -26 -51 3 -5 0 -6 -6 -2 -7 4 -12
3 -12 -3 0 -6 -16 -21 -35 -34 -19 -13 -32 -27 -27 -31 4 -5 -2 -6 -14 -4 -11
1 -22 -1 -23 -7 -4 -18 -33 -45 -42 -39 -5 3 -12 -1 -15 -10 -3 -8 -19 -19
-35 -25 -16 -6 -27 -7 -25 -2 3 5 -6 7 -19 5 -16 -1 -25 3 -25 12 0 8 7 14 16
14 8 0 13 3 11 8 -2 4 7 18 20 32 19 19 22 20 17 5 -6 -15 -4 -17 10 -12 12 5
15 3 10 -6 -4 -6 2 -4 12 6 17 15 17 19 4 28 -13 8 -13 11 4 24 10 8 20 28 22
45 4 33 19 53 44 58 8 2 20 10 26 17 6 8 14 12 17 8 4 -3 7 -1 7 6 0 7 4 10 9
7 5 -4 11 -1 13 4 2 6 10 12 18 13 8 2 28 15 44 30 16 15 40 30 53 33 13 4 23
9 23 13 0 4 19 15 42 26 23 10 60 30 82 44 23 14 49 31 58 36 33 19 188 126
200 138 7 7 60 48 118 92 128 96 232 179 325 259 126 109 333 296 373 336 38
39 111 98 123 99 3 1 8 -2 12 -5z m-5166 -600 c-3 -3 -12 -4 -19 -1 -8 3 -5 6
6 6 11 1 17 -2 13 -5z m116 -1 c-7 -2 -21 -2 -30 0 -10 3 -4 5 12 5 17 0 24
-2 18 -5z m144 1 c-3 -3 -12 -4 -19 -1 -8 3 -5 6 6 6 11 1 17 -2 13 -5z m3213
-785 c0 -4 -7 -12 -15 -19 -12 -10 -15 -10 -15 3 0 8 -6 17 -12 20 -7 2 -1 4
14 3 16 0 28 -4 28 -7z"/>
<path d="M14573 7210 c0 -25 2 -35 4 -22 2 12 2 32 0 45 -2 12 -4 2 -4 -23z"/>
<path d="M14562 7120 c0 -14 2 -19 5 -12 2 6 2 18 0 25 -3 6 -5 1 -5 -13z"/>
<path d="M3510 5957 c0 -3 18 -20 40 -37 22 -17 40 -29 40 -27 0 3 -18 20 -40
37 -22 17 -40 29 -40 27z"/>
<path d="M5968 13173 c7 -3 16 -2 19 1 4 3 -2 6 -13 5 -11 0 -14 -3 -6 -6z"/>
<path d="M5763 13153 c9 -2 25 -2 35 0 9 3 1 5 -18 5 -19 0 -27 -2 -17 -5z"/>
<path d="M5673 13143 c9 -2 25 -2 35 0 9 3 1 5 -18 5 -19 0 -27 -2 -17 -5z"/>
<path d="M5550 13130 l-35 -7 35 -1 c19 0 49 4 65 8 l30 8 -30 0 c-16 -1 -46
-4 -65 -8z"/>
<path d="M13600 11087 c0 -3 17 -17 37 -33 20 -15 33 -23 29 -16 -8 13 -66 56
-66 49z"/>
<path d="M13705 11000 c10 -11 20 -20 23 -20 3 0 -3 9 -13 20 -10 11 -20 20
-23 20 -3 0 3 -9 13 -20z"/>
<path d="M15853 7270 c0 -41 2 -58 4 -37 2 20 2 54 0 75 -2 20 -4 3 -4 -38z"/>
</g>
</svg>
